Coordinates
version=1
nRows=33
nColumns=36
inDegrees=no

Units are S.I. units (second, meters, Newtons, ...)
If the header above contains a line with 'inDegrees', this indicates whether rotational values are in degrees (yes) or radians (no).

endheader
time	pelvis_tilt	pelvis_list	pelvis_rotation	pelvis_tx	pelvis_ty	pelvis_tz	hip_flexion_r	hip_adduction_r	hip_rotation_r	knee_angle_r	knee_adduction_r	ankle_angle_r	subtalar_angle_r	mtp_angle_r	hip_flexion_l	hip_adduction_l	hip_rotation_l	knee_angle_l	knee_adduction_l	ankle_angle_l	subtalar_angle_l	mtp_angle_l	lumbar_extension	lumbar_bending	lumbar_rotation	arm_flex_r	arm_add_r	arm_rot_r	elbow_flex_r	pro_sup_r	arm_flex_l	arm_add_l	arm_rot_l	elbow_flex_l	pro_sup_l
5.44	-0.624508	-0.0351543	-0.0252684	-0.389301	0.610967	-1.20829	1.76506	-0.162745	-0.248098	1.62205	-0.209615	0.50162	0.011052	-0.128915	1.79114	-0.267945	-0.207012	1.6144	-0.235939	0.530843	0.0807047	-0.128915	-0.379774	-0.0190823	-0.0233346	2.37614	-0.13094	0.393698	0.742715	0.365975	2.5752	-0.094735	1.1984	0.468317	2.09
5.445	-0.625085	-0.0343256	-0.0245807	-0.388943	0.615149	-1.20832	1.75615	-0.160887	-0.247384	1.60839	-0.209009	0.499562	0.0120926	-0.128915	1.78106	-0.266405	-0.208219	1.60044	-0.233174	0.528141	0.0828915	-0.128915	-0.373944	-0.0198104	-0.0246381	2.37085	-0.131183	0.393568	0.742689	0.365825	2.57085	-0.0955473	1.19769	0.468542	2.09
5.45	-0.626944	-0.0332024	-0.0239184	-0.388442	0.619361	-1.20836	1.74818	-0.158863	-0.24641	1.59427	-0.208551	0.497295	0.0129825	-0.128915	1.77169	-0.264838	-0.209882	1.58592	-0.230412	0.52533	0.0851741	-0.128915	-0.365079	-0.019802	-0.0251984	2.36309	-0.129735	0.392124	0.74275	0.365588	2.56265	-0.0982738	1.19416	0.470811	2.09
5.455	-0.628281	-0.0325618	-0.0235603	-0.387939	0.623616	-1.2084	1.73955	-0.15623	-0.245776	1.58006	-0.208265	0.494511	0.0133855	-0.128915	1.76207	-0.263561	-0.211314	1.57137	-0.227994	0.522296	0.0876411	-0.128915	-0.357154	-0.0198397	-0.0256372	2.35573	-0.128967	0.390761	0.742222	0.366161	2.55512	-0.10022	1.18941	0.472908	2.09
5.46	-0.627996	-0.0325666	-0.0234173	-0.387403	0.627977	-1.20835	1.72911	-0.153453	-0.245678	1.566	-0.207593	0.491623	0.013836	-0.128915	1.75111	-0.262716	-0.212246	1.55692	-0.225856	0.519379	0.0905377	-0.128915	-0.351806	-0.0198871	-0.0261162	2.34985	-0.128869	0.390315	0.741467	0.367218	2.54942	-0.101359	1.18482	0.474437	2.09
5.465	-0.626895	-0.0328926	-0.0232613	-0.386841	0.632393	-1.20836	1.71775	-0.15105	-0.245687	1.55201	-0.206417	0.488824	0.0145727	-0.128915	1.73949	-0.261817	-0.212818	1.5427	-0.223548	0.516441	0.0932349	-0.128915	-0.347899	-0.0199704	-0.0263973	2.34514	-0.129746	0.390998	0.741426	0.368887	2.54513	-0.101417	1.18155	0.474891	2.09
5.47	-0.624313	-0.0329355	-0.0231734	-0.386286	0.636925	-1.20833	1.7048	-0.148406	-0.231994	1.53917	-0.191553	0.485995	0.011667	-0.128915	1.72608	-0.261017	-0.201233	1.52967	-0.208516	0.513714	0.0927641	-0.128915	-0.346434	-0.0212592	-0.0276882	2.34117	-0.131581	0.391648	0.741431	0.372458	2.54588	-0.0997664	1.1955	0.469993	2.09
5.475	-0.623005	-0.0326322	-0.0228169	-0.38569	0.641374	-1.20834	1.69328	-0.146337	-0.229332	1.52515	-0.187978	0.483127	0.0112084	-0.128915	1.71392	-0.259959	-0.20095	1.51542	-0.204368	0.510505	0.0943728	-0.128915	-0.342128	-0.0225114	-0.0293538	2.33484	-0.132737	0.391363	0.741281	0.373512	2.54346	-0.0989065	1.20645	0.46658	2.09
5.48	-0.621848	-0.0321037	-0.0221451	-0.384943	0.645936	-1.20848	1.68169	-0.144915	-0.231838	1.51041	-0.189916	0.480183	0.0127514	-0.128915	1.70138	-0.258423	-0.205146	1.50039	-0.20429	0.507407	0.0970934	-0.128915	-0.336867	-0.0227253	-0.030257	2.3279	-0.132749	0.39137	0.740976	0.37079	2.53421	-0.100315	1.18936	0.470721	2.09
5.485	-0.620214	-0.0320761	-0.0218152	-0.384085	0.650621	-1.20849	1.66909	-0.142992	-0.233135	1.49547	-0.189902	0.477306	0.0138157	-0.128915	1.68831	-0.257516	-0.207407	1.48536	-0.202711	0.5043	0.0998324	-0.128915	-0.331516	-0.022192	-0.0298047	2.3207	-0.132357	0.39198	0.739639	0.370064	2.52582	-0.10191	1.18368	0.472557	2.09
5.49	-0.617613	-0.0331523	-0.0221082	-0.383071	0.65552	-1.2083	1.65466	-0.140096	-0.235385	1.47998	-0.189315	0.474254	0.0142943	-0.128915	1.67435	-0.257757	-0.208488	1.47032	-0.201036	0.501182	0.104314	-0.128915	-0.326907	-0.0204528	-0.0279049	2.31293	-0.131489	0.39249	0.738746	0.370064	2.51616	-0.104272	1.17607	0.475776	2.09
5.495	-0.615949	-0.0328068	-0.0218158	-0.382158	0.660216	-1.20823	1.64205	-0.138275	-0.236013	1.46488	-0.188614	0.471033	0.0155588	-0.128915	1.66097	-0.256847	-0.210313	1.45509	-0.198589	0.497485	0.108608	-0.128915	-0.321444	-0.0204757	-0.027606	2.30539	-0.131294	0.392761	0.738069	0.370355	2.50806	-0.105647	1.17213	0.477353	2.09
5.5	-0.614321	-0.0314114	-0.021172	-0.38127	0.664821	-1.20828	1.6301	-0.137222	-0.235638	1.45017	-0.18806	0.467602	0.0171964	-0.128915	1.64746	-0.255582	-0.21215	1.44017	-0.194825	0.493942	0.112022	-0.128915	-0.316091	-0.0218505	-0.0283855	2.29805	-0.131766	0.393141	0.737774	0.370611	2.50092	-0.106166	1.16939	0.478263	2.09
5.505	-0.611962	-0.0296281	-0.0205075	-0.380286	0.669517	-1.20843	1.61738	-0.136657	-0.234552	1.4355	-0.18702	0.464299	0.0195366	-0.128915	1.63286	-0.254167	-0.213678	1.42526	-0.190094	0.490689	0.114141	-0.128915	-0.311671	-0.0238057	-0.0293522	2.29076	-0.132968	0.39398	0.738226	0.370891	2.49428	-0.106034	1.16762	0.478187	2.09
5.51	-0.609092	-0.0287235	-0.0203087	-0.379228	0.674259	-1.20846	1.60374	-0.135613	-0.233413	1.42073	-0.184601	0.46102	0.0216049	-0.128915	1.61802	-0.253492	-0.214365	1.41042	-0.185427	0.487615	0.116162	-0.128915	-0.307832	-0.0252829	-0.0299395	2.28361	-0.134246	0.395434	0.738427	0.370624	2.4881	-0.105979	1.16741	0.478526	2.09
5.515	-0.606568	-0.0277457	-0.0202646	-0.378084	0.679028	-1.20843	1.59027	-0.134398	-0.231133	1.40584	-0.180948	0.457127	0.0232498	-0.128915	1.60325	-0.252923	-0.214481	1.3953	-0.180134	0.484421	0.117923	-0.128915	-0.30273	-0.0263486	-0.0305324	2.27525	-0.134107	0.39621	0.7377	0.37019	2.47989	-0.1076	1.16563	0.480179	2.09
5.52	-0.603645	-0.0262596	-0.020229	-0.376918	0.683846	-1.20848	1.5764	-0.132943	-0.229446	1.39047	-0.17894	0.452963	0.0246356	-0.128915	1.58775	-0.251933	-0.214952	1.37998	-0.17475	0.48112	0.119126	-0.128915	-0.298217	-0.0279938	-0.0313375	2.26721	-0.133968	0.396455	0.736584	0.370032	2.47207	-0.108876	1.1633	0.481762	2.09
5.525	-0.600386	-0.0248924	-0.0200842	-0.375738	0.688652	-1.20851	1.56224	-0.131708	-0.228469	1.37512	-0.177351	0.448739	0.0263254	-0.128915	1.572	-0.250843	-0.215409	1.36461	-0.169484	0.47762	0.120126	-0.128915	-0.294188	-0.0299	-0.0322544	2.25944	-0.134377	0.396593	0.735545	0.369722	2.46492	-0.108967	1.1619	0.481652	2.09
5.53	-0.597444	-0.0236044	-0.0200841	-0.374453	0.693457	-1.20846	1.5482	-0.130588	-0.227366	1.3597	-0.175084	0.444523	0.0283115	-0.128915	1.55639	-0.250067	-0.215661	1.34911	-0.163931	0.474087	0.121184	-0.128915	-0.288875	-0.0314211	-0.0321763	2.25015	-0.135075	0.396845	0.736245	0.367598	2.45601	-0.109228	1.16066	0.481095	2.09
5.535	-0.59359	-0.0230853	-0.0201143	-0.37312	0.698311	-1.20845	1.53298	-0.129826	-0.22593	1.34445	-0.171185	0.440197	0.0303159	-0.128915	1.54019	-0.249544	-0.215705	1.33378	-0.158758	0.470572	0.122747	-0.128915	-0.284876	-0.032206	-0.0319951	2.24164	-0.135876	0.397126	0.736945	0.363197	2.44762	-0.109671	1.15957	0.481286	2.09
5.54	-0.588909	-0.0227193	-0.0200732	-0.371757	0.703221	-1.20848	1.51667	-0.129272	-0.215798	1.33008	-0.158398	0.435379	0.0280506	-0.128915	1.52299	-0.248975	-0.205786	1.31932	-0.143815	0.466445	0.119958	-0.128915	-0.281996	-0.0330002	-0.0324872	2.23322	-0.136915	0.402222	0.735731	0.36807	2.44024	-0.110519	1.1599	0.481817	2.09
5.545	-0.585751	-0.0219578	-0.0200967	-0.370343	0.708034	-1.20847	1.5019	-0.128199	-0.215345	1.31408	-0.156179	0.431131	0.0299812	-0.128915	1.50727	-0.248277	-0.207141	1.30324	-0.139821	0.462049	0.12241	-0.128915	-0.276098	-0.0337426	-0.0323778	2.22264	-0.136736	0.403489	0.734487	0.370129	2.4304	-0.112027	1.16099	0.483242	2.09
5.55	-0.582417	-0.0213983	-0.0202946	-0.368915	0.712825	-1.20842	1.48693	-0.127066	-0.216643	1.2979	-0.155257	0.427211	0.0330048	-0.128915	1.49154	-0.24795	-0.209937	1.28724	-0.13733	0.457777	0.124698	-0.128915	-0.27039	-0.0343334	-0.0321306	2.2123	-0.136678	0.404763	0.733618	0.368734	2.42031	-0.113387	1.15752	0.483587	2.09
5.555	-0.577713	-0.0204217	-0.0203429	-0.367364	0.717734	-1.20848	1.47053	-0.126684	-0.216976	1.28201	-0.15349	0.423247	0.0367483	-0.128915	1.47402	-0.247327	-0.212376	1.27133	-0.133689	0.453273	0.12692	-0.128915	-0.266466	-0.0353966	-0.0324518	2.2023	-0.136866	0.406381	0.733104	0.366579	2.41088	-0.115398	1.15647	0.485615	2.09
5.56	-0.573009	-0.0198891	-0.0203579	-0.36577	0.722627	-1.20857	1.45383	-0.126495	-0.216636	1.26608	-0.15027	0.419293	0.0401947	-0.128915	1.45662	-0.246751	-0.214006	1.25542	-0.129584	0.448426	0.128523	-0.128915	-0.26238	-0.0359735	-0.0329251	2.19195	-0.136816	0.407757	0.732417	0.364138	2.40092	-0.117215	1.1545	0.486791	2.09
5.565	-0.568347	-0.0196514	-0.0205124	-0.364161	0.72748	-1.2086	1.43707	-0.126177	-0.21585	1.25017	-0.146087	0.41549	0.0431929	-0.128915	1.43939	-0.246558	-0.214768	1.23957	-0.124803	0.443199	0.129486	-0.128915	-0.25797	-0.0363033	-0.0329936	2.18128	-0.136833	0.409166	0.731572	0.361576	2.39067	-0.118715	1.15287	0.487442	2.09
5.57	-0.56363	-0.0196465	-0.0207844	-0.362494	0.732323	-1.20861	1.42006	-0.125703	-0.214836	1.23414	-0.141408	0.411695	0.0461646	-0.128915	1.42211	-0.246627	-0.21457	1.22367	-0.119254	0.43795	0.129255	-0.128915	-0.253313	-0.0364485	-0.0326443	2.17015	-0.137069	0.410707	0.730904	0.358692	2.38005	-0.119944	1.15173	0.487257	2.09
5.575	-0.558545	-0.0189973	-0.0208169	-0.360744	0.737174	-1.20866	1.40284	-0.125891	-0.213866	1.21826	-0.137236	0.408207	0.0496999	-0.128915	1.40415	-0.24621	-0.215534	1.20745	-0.114215	0.433218	0.128392	-0.128915	-0.248906	-0.0372816	-0.03274	2.15906	-0.137244	0.412999	0.729545	0.355981	2.36879	-0.120833	1.14892	0.486894	2.09
5.58	-0.553095	-0.0186743	-0.0211061	-0.358885	0.742081	-1.20861	1.38491	-0.12556	-0.213424	1.20197	-0.13296	0.404575	0.0523739	-0.128915	1.38569	-0.246495	-0.216874	1.19103	-0.10932	0.428616	0.129864	-0.128915	-0.244635	-0.0378095	-0.0321511	2.14768	-0.137539	0.415919	0.728114	0.353554	2.35695	-0.121781	1.14594	0.486633	2.09
5.585	-0.547374	-0.018777	-0.0219546	-0.356928	0.747044	-1.20844	1.36627	-0.124389	-0.213676	1.18498	-0.128588	0.400722	0.0540497	-0.128915	1.36682	-0.247665	-0.217713	1.17463	-0.104015	0.423325	0.132692	-0.128915	-0.24038	-0.0376195	-0.0302943	2.13615	-0.137545	0.419105	0.726344	0.351901	2.34414	-0.122894	1.1417	0.486078	2.09
5.59	-0.541767	-0.0189564	-0.0223223	-0.354988	0.75189	-1.20835	1.34795	-0.123815	-0.213588	1.16843	-0.123993	0.396742	0.0564258	-0.128915	1.34831	-0.248122	-0.217433	1.15844	-0.0980341	0.417359	0.134844	-0.128915	-0.235913	-0.0375577	-0.0293395	2.1245	-0.137821	0.422821	0.724245	0.350908	2.33123	-0.123027	1.13593	0.484138	2.09
5.595	-0.536222	-0.0190751	-0.0222827	-0.353052	0.756719	-1.20839	1.32976	-0.123978	-0.21307	1.15208	-0.118821	0.391987	0.0589117	-0.128915	1.32981	-0.247885	-0.216252	1.14205	-0.0913778	0.411686	0.134554	-0.128915	-0.23144	-0.0375982	-0.029112	2.11295	-0.138372	0.427384	0.722554	0.349365	2.31879	-0.12333	1.13141	0.482736	2.09
5.6	-0.530324	-0.0192881	-0.0222182	-0.351131	0.761591	-1.20848	1.31091	-0.124184	-0.205407	1.13599	-0.106769	0.386071	0.055741	-0.128915	1.31052	-0.24751	-0.20144	1.12635	-0.0719697	0.404559	0.12391	-0.128915	-0.227489	-0.0375009	-0.0286045	2.10221	-0.139558	0.435217	0.720577	0.348199	2.30744	-0.123108	1.13155	0.479536	2.09
